<mxfile host="app.diagrams.net" modified="2023-12-19T18:17:54.716Z" agent="Mozilla/5.0 (Windows NT 10.0; Win64; x64) AppleWebKit/537.36 (KHTML, like Gecko) Chrome/120.0.0.0 Safari/537.36" etag="5nzd0-E77dmSqcnZa8Yu" version="22.1.11" type="google">
  <diagram id="R2lEEEUBdFMjLlhIrx00" name="Page-1">
    <mxGraphModel grid="1" page="1" gridSize="10" guides="1" tooltips="1" connect="1" arrows="1" fold="1" pageScale="1" pageWidth="850" pageHeight="1100" math="0" shadow="0" extFonts="Permanent Marker^https://fonts.googleapis.com/css?family=Permanent+Marker">
      <root>
        <mxCell id="0" />
        <mxCell id="1" parent="0" />
        <mxCell id="4I6Yh6mFrfyGbpvMhyih-1" value="&lt;font style=&quot;font-size: 19px;&quot;&gt;User&lt;/font&gt;" style="rounded=0;whiteSpace=wrap;html=1;" vertex="1" parent="1">
          <mxGeometry x="210" y="210" width="110" height="40" as="geometry" />
        </mxCell>
        <mxCell id="4I6Yh6mFrfyGbpvMhyih-2" value="&lt;u&gt;User_id&lt;/u&gt;" style="ellipse;whiteSpace=wrap;html=1;" vertex="1" parent="1">
          <mxGeometry x="195" y="100" width="110" height="40" as="geometry" />
        </mxCell>
        <mxCell id="4I6Yh6mFrfyGbpvMhyih-3" value="Name" style="ellipse;whiteSpace=wrap;html=1;" vertex="1" parent="1">
          <mxGeometry x="80" y="140" width="80" height="40" as="geometry" />
        </mxCell>
        <mxCell id="4I6Yh6mFrfyGbpvMhyih-4" value="Email" style="ellipse;whiteSpace=wrap;html=1;" vertex="1" parent="1">
          <mxGeometry x="40" y="200" width="90" height="50" as="geometry" />
        </mxCell>
        <mxCell id="4I6Yh6mFrfyGbpvMhyih-5" value="Age" style="ellipse;whiteSpace=wrap;html=1;" vertex="1" parent="1">
          <mxGeometry x="70" y="280" width="100" height="40" as="geometry" />
        </mxCell>
        <mxCell id="4I6Yh6mFrfyGbpvMhyih-11" value="" style="endArrow=none;html=1;rounded=0;exitX=0.436;exitY=-0.092;exitDx=0;exitDy=0;exitPerimeter=0;" edge="1" parent="1" source="4I6Yh6mFrfyGbpvMhyih-1">
          <mxGeometry width="50" height="50" relative="1" as="geometry">
            <mxPoint x="210" y="190" as="sourcePoint" />
            <mxPoint x="260" y="140" as="targetPoint" />
            <Array as="points">
              <mxPoint x="260" y="210" />
            </Array>
          </mxGeometry>
        </mxCell>
        <mxCell id="4I6Yh6mFrfyGbpvMhyih-16" value="" style="endArrow=none;html=1;rounded=0;" edge="1" parent="1">
          <mxGeometry width="50" height="50" relative="1" as="geometry">
            <mxPoint x="170" y="300" as="sourcePoint" />
            <mxPoint x="220" y="250" as="targetPoint" />
          </mxGeometry>
        </mxCell>
        <mxCell id="4I6Yh6mFrfyGbpvMhyih-17" value="" style="endArrow=none;html=1;rounded=0;entryX=0;entryY=0.5;entryDx=0;entryDy=0;" edge="1" parent="1" target="4I6Yh6mFrfyGbpvMhyih-1">
          <mxGeometry width="50" height="50" relative="1" as="geometry">
            <mxPoint x="130" y="230" as="sourcePoint" />
            <mxPoint x="180" y="180" as="targetPoint" />
          </mxGeometry>
        </mxCell>
        <mxCell id="4I6Yh6mFrfyGbpvMhyih-18" value="" style="endArrow=none;html=1;rounded=0;entryX=0.109;entryY=-0.025;entryDx=0;entryDy=0;entryPerimeter=0;" edge="1" parent="1" target="4I6Yh6mFrfyGbpvMhyih-1">
          <mxGeometry width="50" height="50" relative="1" as="geometry">
            <mxPoint x="150" y="170" as="sourcePoint" />
            <mxPoint x="200" y="140" as="targetPoint" />
          </mxGeometry>
        </mxCell>
        <mxCell id="4I6Yh6mFrfyGbpvMhyih-21" value="&lt;font style=&quot;font-size: 15px;&quot;&gt;Subscription&lt;/font&gt;" style="rounded=0;whiteSpace=wrap;html=1;" vertex="1" parent="1">
          <mxGeometry x="430" y="210" width="120" height="40" as="geometry" />
        </mxCell>
        <mxCell id="4I6Yh6mFrfyGbpvMhyih-22" value="" style="endArrow=none;html=1;rounded=0;exitX=1;exitY=0.5;exitDx=0;exitDy=0;" edge="1" parent="1" source="4I6Yh6mFrfyGbpvMhyih-1">
          <mxGeometry width="50" height="50" relative="1" as="geometry">
            <mxPoint x="380" y="280" as="sourcePoint" />
            <mxPoint x="430" y="230" as="targetPoint" />
          </mxGeometry>
        </mxCell>
        <mxCell id="4I6Yh6mFrfyGbpvMhyih-23" value="Start_date" style="ellipse;whiteSpace=wrap;html=1;" vertex="1" parent="1">
          <mxGeometry x="330" y="130" width="110" height="30" as="geometry" />
        </mxCell>
        <mxCell id="4I6Yh6mFrfyGbpvMhyih-24" value="&lt;u&gt;User_id&lt;/u&gt;" style="ellipse;whiteSpace=wrap;html=1;" vertex="1" parent="1">
          <mxGeometry x="425" y="90" width="120" height="40" as="geometry" />
        </mxCell>
        <mxCell id="4I6Yh6mFrfyGbpvMhyih-25" value="end_date" style="ellipse;whiteSpace=wrap;html=1;" vertex="1" parent="1">
          <mxGeometry x="540" y="60" width="110" height="50" as="geometry" />
        </mxCell>
        <mxCell id="4I6Yh6mFrfyGbpvMhyih-26" value="batch_id" style="ellipse;whiteSpace=wrap;html=1;" vertex="1" parent="1">
          <mxGeometry x="600" y="120" width="120" height="50" as="geometry" />
        </mxCell>
        <mxCell id="4I6Yh6mFrfyGbpvMhyih-27" value="Subscription id" style="ellipse;whiteSpace=wrap;html=1;" vertex="1" parent="1">
          <mxGeometry x="600" y="180" width="130" height="50" as="geometry" />
        </mxCell>
        <mxCell id="4I6Yh6mFrfyGbpvMhyih-28" value="Payment_id" style="ellipse;whiteSpace=wrap;html=1;" vertex="1" parent="1">
          <mxGeometry x="600" y="250" width="120" height="40" as="geometry" />
        </mxCell>
        <mxCell id="4I6Yh6mFrfyGbpvMhyih-29" style="edgeStyle=orthogonalEdgeStyle;rounded=0;orthogonalLoop=1;jettySize=auto;html=1;exitX=0.5;exitY=1;exitDx=0;exitDy=0;" edge="1" parent="1" source="4I6Yh6mFrfyGbpvMhyih-26" target="4I6Yh6mFrfyGbpvMhyih-26">
          <mxGeometry relative="1" as="geometry" />
        </mxCell>
        <mxCell id="4I6Yh6mFrfyGbpvMhyih-30" value="" style="endArrow=none;html=1;rounded=0;" edge="1" parent="1">
          <mxGeometry width="50" height="50" relative="1" as="geometry">
            <mxPoint x="540" y="210" as="sourcePoint" />
            <mxPoint x="600" y="150" as="targetPoint" />
          </mxGeometry>
        </mxCell>
        <mxCell id="4I6Yh6mFrfyGbpvMhyih-31" value="" style="endArrow=none;html=1;rounded=0;exitX=0.822;exitY=0.042;exitDx=0;exitDy=0;exitPerimeter=0;" edge="1" parent="1" source="4I6Yh6mFrfyGbpvMhyih-21">
          <mxGeometry width="50" height="50" relative="1" as="geometry">
            <mxPoint x="530" y="160" as="sourcePoint" />
            <mxPoint x="580" y="110" as="targetPoint" />
          </mxGeometry>
        </mxCell>
        <mxCell id="4I6Yh6mFrfyGbpvMhyih-32" value="" style="endArrow=none;html=1;rounded=0;exitX=0.5;exitY=0;exitDx=0;exitDy=0;" edge="1" parent="1" source="4I6Yh6mFrfyGbpvMhyih-21">
          <mxGeometry width="50" height="50" relative="1" as="geometry">
            <mxPoint x="440" y="180" as="sourcePoint" />
            <mxPoint x="490" y="130" as="targetPoint" />
          </mxGeometry>
        </mxCell>
        <mxCell id="4I6Yh6mFrfyGbpvMhyih-33" value="" style="endArrow=none;html=1;rounded=0;exitX=0.189;exitY=-0.025;exitDx=0;exitDy=0;exitPerimeter=0;" edge="1" parent="1" source="4I6Yh6mFrfyGbpvMhyih-21">
          <mxGeometry width="50" height="50" relative="1" as="geometry">
            <mxPoint x="380" y="200" as="sourcePoint" />
            <mxPoint x="430" y="150" as="targetPoint" />
          </mxGeometry>
        </mxCell>
        <mxCell id="4I6Yh6mFrfyGbpvMhyih-34" value="" style="endArrow=none;html=1;rounded=0;exitX=1;exitY=0.5;exitDx=0;exitDy=0;" edge="1" parent="1" source="4I6Yh6mFrfyGbpvMhyih-21">
          <mxGeometry width="50" height="50" relative="1" as="geometry">
            <mxPoint x="550" y="250" as="sourcePoint" />
            <mxPoint x="600" y="200" as="targetPoint" />
          </mxGeometry>
        </mxCell>
        <mxCell id="4I6Yh6mFrfyGbpvMhyih-35" value="" style="endArrow=none;html=1;rounded=0;exitX=1;exitY=0.75;exitDx=0;exitDy=0;" edge="1" parent="1" source="4I6Yh6mFrfyGbpvMhyih-21">
          <mxGeometry width="50" height="50" relative="1" as="geometry">
            <mxPoint x="550" y="320" as="sourcePoint" />
            <mxPoint x="600" y="270" as="targetPoint" />
          </mxGeometry>
        </mxCell>
        <mxCell id="4I6Yh6mFrfyGbpvMhyih-36" value="&lt;font style=&quot;font-size: 16px;&quot;&gt;Batch&lt;/font&gt;" style="rounded=0;whiteSpace=wrap;html=1;" vertex="1" parent="1">
          <mxGeometry x="280" y="320" width="120" height="40" as="geometry" />
        </mxCell>
        <mxCell id="4I6Yh6mFrfyGbpvMhyih-37" value="Payment" style="rounded=0;whiteSpace=wrap;html=1;fontSize=15;" vertex="1" parent="1">
          <mxGeometry x="560" y="340" width="120" height="40" as="geometry" />
        </mxCell>
        <mxCell id="4I6Yh6mFrfyGbpvMhyih-38" value="" style="endArrow=none;html=1;rounded=0;exitX=0.5;exitY=0;exitDx=0;exitDy=0;" edge="1" parent="1" source="4I6Yh6mFrfyGbpvMhyih-36">
          <mxGeometry width="50" height="50" relative="1" as="geometry">
            <mxPoint x="380" y="300" as="sourcePoint" />
            <mxPoint x="430" y="250" as="targetPoint" />
          </mxGeometry>
        </mxCell>
        <mxCell id="4I6Yh6mFrfyGbpvMhyih-39" value="" style="endArrow=none;html=1;rounded=0;exitX=0.5;exitY=0;exitDx=0;exitDy=0;" edge="1" parent="1" source="4I6Yh6mFrfyGbpvMhyih-37">
          <mxGeometry width="50" height="50" relative="1" as="geometry">
            <mxPoint x="470" y="300" as="sourcePoint" />
            <mxPoint x="520" y="250" as="targetPoint" />
          </mxGeometry>
        </mxCell>
        <mxCell id="4I6Yh6mFrfyGbpvMhyih-40" value="Batch_id" style="ellipse;whiteSpace=wrap;html=1;" vertex="1" parent="1">
          <mxGeometry x="130" y="380" width="120" height="50" as="geometry" />
        </mxCell>
        <mxCell id="4I6Yh6mFrfyGbpvMhyih-41" value="Time Duration" style="ellipse;whiteSpace=wrap;html=1;" vertex="1" parent="1">
          <mxGeometry x="290" y="400" width="130" height="50" as="geometry" />
        </mxCell>
        <mxCell id="4I6Yh6mFrfyGbpvMhyih-42" value="" style="endArrow=none;html=1;rounded=0;" edge="1" parent="1">
          <mxGeometry width="50" height="50" relative="1" as="geometry">
            <mxPoint x="230" y="390" as="sourcePoint" />
            <mxPoint x="280" y="340" as="targetPoint" />
          </mxGeometry>
        </mxCell>
        <mxCell id="4I6Yh6mFrfyGbpvMhyih-43" value="" style="endArrow=none;html=1;rounded=0;exitX=0.5;exitY=0;exitDx=0;exitDy=0;" edge="1" parent="1" source="4I6Yh6mFrfyGbpvMhyih-41">
          <mxGeometry width="50" height="50" relative="1" as="geometry">
            <mxPoint x="270" y="410" as="sourcePoint" />
            <mxPoint x="320" y="360" as="targetPoint" />
          </mxGeometry>
        </mxCell>
        <mxCell id="4I6Yh6mFrfyGbpvMhyih-44" value="User_id" style="ellipse;whiteSpace=wrap;html=1;" vertex="1" parent="1">
          <mxGeometry x="530" y="510" width="130" height="40" as="geometry" />
        </mxCell>
        <mxCell id="4I6Yh6mFrfyGbpvMhyih-45" value="Batch_id" style="ellipse;whiteSpace=wrap;html=1;" vertex="1" parent="1">
          <mxGeometry x="720" y="360" width="120" height="30" as="geometry" />
        </mxCell>
        <mxCell id="4I6Yh6mFrfyGbpvMhyih-46" value="Amount" style="ellipse;whiteSpace=wrap;html=1;" vertex="1" parent="1">
          <mxGeometry x="700" y="420" width="130" height="30" as="geometry" />
        </mxCell>
        <mxCell id="4I6Yh6mFrfyGbpvMhyih-47" value="Payment_id" style="ellipse;whiteSpace=wrap;html=1;" vertex="1" parent="1">
          <mxGeometry x="630" y="480" width="140" height="40" as="geometry" />
        </mxCell>
        <mxCell id="4I6Yh6mFrfyGbpvMhyih-48" value="Paid_at" style="ellipse;whiteSpace=wrap;html=1;" vertex="1" parent="1">
          <mxGeometry x="440" y="460" width="120" height="35" as="geometry" />
        </mxCell>
        <mxCell id="4I6Yh6mFrfyGbpvMhyih-49" value="" style="endArrow=none;html=1;rounded=0;exitX=0.5;exitY=0;exitDx=0;exitDy=0;" edge="1" parent="1" source="4I6Yh6mFrfyGbpvMhyih-48">
          <mxGeometry width="50" height="50" relative="1" as="geometry">
            <mxPoint x="510" y="430" as="sourcePoint" />
            <mxPoint x="560" y="380" as="targetPoint" />
          </mxGeometry>
        </mxCell>
        <mxCell id="4I6Yh6mFrfyGbpvMhyih-50" value="" style="endArrow=none;html=1;rounded=0;exitX=0.5;exitY=0;exitDx=0;exitDy=0;" edge="1" parent="1" source="4I6Yh6mFrfyGbpvMhyih-44">
          <mxGeometry width="50" height="50" relative="1" as="geometry">
            <mxPoint x="550" y="430" as="sourcePoint" />
            <mxPoint x="600" y="380" as="targetPoint" />
          </mxGeometry>
        </mxCell>
        <mxCell id="4I6Yh6mFrfyGbpvMhyih-51" value="" style="endArrow=none;html=1;rounded=0;exitX=0.267;exitY=0.092;exitDx=0;exitDy=0;exitPerimeter=0;" edge="1" parent="1" source="4I6Yh6mFrfyGbpvMhyih-47">
          <mxGeometry width="50" height="50" relative="1" as="geometry">
            <mxPoint x="580" y="430" as="sourcePoint" />
            <mxPoint x="630" y="380" as="targetPoint" />
          </mxGeometry>
        </mxCell>
        <mxCell id="4I6Yh6mFrfyGbpvMhyih-52" value="" style="endArrow=none;html=1;rounded=0;" edge="1" parent="1" source="4I6Yh6mFrfyGbpvMhyih-46">
          <mxGeometry width="50" height="50" relative="1" as="geometry">
            <mxPoint x="610" y="430" as="sourcePoint" />
            <mxPoint x="660" y="380" as="targetPoint" />
          </mxGeometry>
        </mxCell>
        <mxCell id="4I6Yh6mFrfyGbpvMhyih-53" value="" style="endArrow=none;html=1;rounded=0;entryX=0.222;entryY=0.033;entryDx=0;entryDy=0;entryPerimeter=0;" edge="1" parent="1" target="4I6Yh6mFrfyGbpvMhyih-45">
          <mxGeometry width="50" height="50" relative="1" as="geometry">
            <mxPoint x="680" y="360" as="sourcePoint" />
            <mxPoint x="730" y="310" as="targetPoint" />
          </mxGeometry>
        </mxCell>
      </root>
    </mxGraphModel>
  </diagram>
</mxfile>
